<svg xmlns="http://www.w3.org/2000/svg" width="537.64001" height="563.26871" viewBox="0 0 537.64001 563.26871" xmlns:xlink="http://www.w3.org/1999/xlink"><path id="uuid-05089078-1ac0-4a5f-842c-4e350ea73383-212" d="m294.35999,308.70871c1.69,8.48001,7.72,13.98001,13.47,12.28s9.04001-9.95999,7.35001-18.44c-.63-3.39999-2.10999-6.51999-4.32001-9.07001l-7.63-35.79999-17.84,5.88,9.42001,34.67001c-1.01001,3.51001-1.16,7.10999-.42999,10.48001h0l-.02002-.00003Z" fill="#f8a8ab"/><rect x="254.14999" y="514.38865" width="20.93999" height="29.71002" fill="#f8a8ab"/><path d="m272.76999,561.11869c-3.57999.32001-21.5,1.73999-22.39999-2.37-.82001-3.77002.39-7.71002.56-8.25,1.72-17.14001,2.36-17.33002,2.75-17.44.61-.17999,2.39001.66998,5.28,2.53003l.17999.12.04001.21002c.04999.27002,1.32999,6.56,7.39999,5.59003,4.16-.65997,5.51001-1.58002,5.94-2.03003-.35001-.15997-.79001-.44-1.10001-.91998-.45001-.70001-.53-1.59998-.23001-2.67999.78-2.84998,3.12-7.06,3.22-7.22998l.26999-.47998,23.79999,16.06,14.70001,4.20001c1.10999.32001,2,1.10999,2.45001,2.16998h0c.62,1.47998.23999,3.20001-.95999,4.28003-2.67001,2.40002-7.97,6.51001-13.54001,7.02002-1.48001.14001-3.44.19-5.64001.19-9.19,0-22.61002-.95001-22.70999-.96997l-.00998-.00018Z" fill="#2f2e43"/><rect x="196.13998" y="514.38865" width="20.94" height="29.71002" fill="#f8a8ab"/><path d="m214.75999,561.11869c-3.58.32001-21.5,1.73999-22.39999-2.37-.82001-3.77002.39-7.71002.56-8.25,1.72-17.14001,2.36-17.33002,2.75-17.44.61-.17999,2.39.66998,5.28,2.53003l.17999.12.03999.21002c.05.27002,1.33,6.56,7.39999,5.59003,4.16-.65997,5.50999-1.58002,5.94-2.03003-.35001-.15997-.78999-.44-1.10001-.91998-.45-.70001-.53-1.59998-.23-2.67999.78-2.84998,3.12-7.06,3.22-7.22998l.27-.47998,23.8,16.06,14.7,4.20001c1.10999.32001,2,1.10999,2.45001,2.16998h0c.62,1.47998.23999,3.20001-.95999,4.28003-2.67,2.40002-7.97,6.51001-13.53999,7.02002-1.48.14001-3.44.19-5.64.19-9.19,0-22.61-.95001-22.70999-.96997l-.01003-.00018Z" fill="#2f2e43"/><polygon points="213.11 100.2887 245.58 110.9587 245.58 64.2187 216.12 64.2187 213.11 100.2887" fill="#f8a8ab"/><circle cx="241.56" cy="44.8087" r="32.35" fill="#f8a8ab"/><path d="m233.32001,47.3387l4.46001,5.41,8.06999-14.12s10.29999.53,10.29999-7.11,9.45001-7.86,9.45001-7.86c0,0,13.37-23.35-14.33-17.2,0,0-19.21001-13.16-28.77-1.91,0,0-29.3,14.75-20.91,40.44l13.92999,26.48,3.16-5.99s-1.91-25.16,14.64999-18.15l-.00998.01Z" fill="#2f2e43"/><path d="m0,562.07871c0,.65997.53,1.19,1.19,1.19h535.26001c.65997,0,1.19-.53003,1.19-1.19s-.53003-1.19-1.19-1.19H1.19c-.66,0-1.19.53003-1.19,1.19Z" fill="#484565"/><path d="m328.79999,349.01871l-61.13-19.64999c-7.54001-2.42001-15.64,1.63-18.20999,9.13l-27.62,80.54001c-2.82001,8.22,2.16,17.06,10.64999,18.92001l70.26001,15.37c7.72,1.69,15.38-3.10001,17.23999-10.78l18.48999-76.26001c1.79001-7.39999-2.42999-14.94-9.67999-17.26999v-.00003Z" fill="#e2e3e4"/><path d="m322.60001,366.0087l-3.94-.70001c2.51999-14.32001,6-52.5-8.04999-57.17999-6.81-2.26999-13.67001,1.70001-20.38,11.81-5.26999,7.95001-8.35001,16.75-8.38,16.84l-3.78-1.31c.54001-1.54999,13.39001-37.94,33.79999-31.13998,20.17001,6.72,11.12,59.42999,10.72,61.66998l.01001.01001Z" fill="#2f2e43"/><polygon points="276.25 254.1987 166.98 254.1987 193.72 529.88871 224.72 527.88871 226.25 329.3487 245.75999 416.4787 251.47 526.38871 279.72 527.88871 283 402.85871 276.25 254.1987" fill="#2f2e43"/><polygon points="211.34 83.1987 248.34 92.1987 279.97 228.88871 276.25 254.1987 183.60001 269.8787 166.98 254.1987 211.34 83.1987" fill="#6c63ff"/><polygon points="211.28 76.3587 198.63 90.5487 172.97 96.7087 129.22 291.2287 213.52 305.5087 237 107.3987 211.28 76.3587" fill="#2f2e43"/><polygon points="248.32001 83.4487 241.72 106.9687 272.26999 317.88871 288.03 317.88871 280.76001 111.4887 259.35999 94.4887 248.32001 83.4487" fill="#2f2e43"/><path d="m268.07001,108.8787l12.69,2.61s5.56,2.04,7.57999,17.84c2.01001,15.8,2.37,68.86,2.37,68.86l21.57999,85.59999-24.51001,8.07999-11.54001-46.06-8.17999-136.94.01004.01002Z" fill="#2f2e43"/><polygon points="246.89999 97.8987 240.75999 109.1587 253.03999 241.2387 238.71001 254.54869 225.39999 242.2687 235.13 109.66871 220.95 97.8987 225.91 94.3087 231.03 100.4487 241.27 98.4087 245.36 92.2587 246.89999 97.8987" fill="#2f2e43"/><path id="uuid-cfbaea2a-b746-4d5d-9689-7a8742f4d92d-213" d="m186.59,275.51871c5.14999,6.95001,12.95,9.34,17.42,5.35001s3.92-12.85999-1.23-19.82001c-2.02-2.81-4.69-4.98999-7.78999-6.35001l-22.2-29.11-13.62,12.94,23.33,27.31999c.59,3.60999,1.99001,6.92001,4.09,9.66h0l-.00002.01001Z" fill="#f8a8ab"/><path d="m183.11,99.8987l-10.14-3.19s-13.74001,3.41-18.29001,20.57l-22.20999,83.6,37.67,66.12,20.13-24.44-18.96001-60.7,11.81-81.96h-.00999Z" fill="#2f2e43"/></svg>