<svg xmlns="http://www.w3.org/2000/svg" xmlns:xlink="http://www.w3.org/1999/xlink" width="1000" zoomAndPan="magnify" viewBox="0 0 750 187.499995" height="250" preserveAspectRatio="xMidYMid meet" version="1.0"><defs><g/><clipPath id="7f2b5091dc"><path d="M 1 20 L 124.984375 20 L 124.984375 144 L 1 144 Z M 1 20 " clip-rule="nonzero"/></clipPath><clipPath id="c7587abba2"><path d="M 42 18.699219 L 84 18.699219 L 84 145.867188 L 42 145.867188 Z M 42 18.699219 " clip-rule="nonzero"/></clipPath></defs><g clip-path="url(#7f2b5091dc)"><path fill="#31e78c" d="M 108.417969 65.703125 L 79.554688 65.703125 L 79.554688 20.285156 L 78.214844 21.84375 C 78.195312 21.867188 77.742188 22.394531 76.90625 23.3125 C 76.496094 23.757812 75.992188 24.300781 75.398438 24.921875 L 73.488281 27.035156 C 72.851562 27.730469 72.144531 28.539062 71.289062 29.539062 L 71.242188 29.59375 C 70.488281 30.445312 69.691406 31.429688 68.796875 32.535156 C 67.355469 34.378906 65.503906 36.839844 63.960938 39.585938 C 62.53125 42.125 61.546875 44.734375 61.105469 47.148438 C 60.925781 48.4375 60.871094 49.660156 60.941406 50.882812 C 61.03125 52.089844 61.277344 53.386719 61.691406 54.851562 C 62.417969 57.453125 63.816406 60.503906 66.101562 64.472656 C 68.035156 67.773438 70.332031 71.234375 72.765625 74.898438 L 73.359375 75.789062 C 76.320312 80.28125 78.964844 84.359375 81.4375 88.945312 C 82.886719 91.667969 84.53125 95.003906 85.863281 98.828125 L 108.417969 98.828125 C 117.5625 98.828125 124.980469 91.414062 124.980469 82.265625 C 124.980469 73.121094 117.5625 65.703125 108.417969 65.703125 Z M 59.226562 101.757812 C 57.6875 99.292969 55.972656 96.738281 54.15625 94.035156 C 53.308594 92.777344 52.449219 91.496094 51.589844 90.195312 C 49.035156 86.328125 46.089844 81.691406 43.523438 76.570312 C 41.613281 72.679688 40.210938 69.125 39.25 65.703125 L 17.566406 65.703125 C 8.417969 65.703125 1.003906 73.121094 1.003906 82.265625 C 1.003906 91.414062 8.417969 98.828125 17.566406 98.828125 L 46.429688 98.828125 L 46.429688 143.363281 L 48.667969 141.109375 C 49.097656 140.6875 49.621094 140.171875 50.242188 139.589844 L 52.230469 137.605469 C 53.957031 135.890625 55.640625 134.113281 57.238281 132.324219 C 58.628906 130.726562 60.652344 128.304688 62.292969 125.632812 C 62.394531 125.453125 62.503906 125.273438 62.609375 125.09375 C 62.859375 124.683594 63.089844 124.292969 63.226562 123.996094 L 63.269531 123.90625 L 63.777344 122.898438 L 64.328125 121.578125 L 64.445312 121.214844 C 64.5 121.039062 64.5625 120.84375 64.628906 120.648438 C 64.675781 120.488281 64.75 120.226562 64.796875 120.066406 C 64.824219 119.945312 64.851562 119.828125 64.878906 119.707031 C 64.960938 119.363281 65.046875 119.011719 65.066406 118.824219 L 65.078125 118.6875 L 65.101562 118.546875 C 65.433594 116.425781 65.144531 114.171875 64.203125 111.449219 C 63.109375 108.226562 60.96875 104.578125 59.226562 101.757812 " fill-opacity="1" fill-rule="nonzero"/></g><g clip-path="url(#c7587abba2)"><path fill="#000000" d="M 74.625 18.765625 C 74.625 18.765625 74.210938 19.246094 73.414062 20.113281 C 73.015625 20.546875 72.527344 21.082031 71.9375 21.695312 C 71.375 22.3125 70.734375 23.027344 70.011719 23.828125 C 69.292969 24.605469 68.523438 25.496094 67.695312 26.460938 C 66.855469 27.414062 65.996094 28.472656 65.097656 29.589844 C 63.324219 31.847656 61.4375 34.414062 59.835938 37.265625 C 58.230469 40.113281 56.992188 43.246094 56.433594 46.398438 C 56.207031 47.988281 56.125 49.578125 56.21875 51.191406 C 56.335938 52.804688 56.660156 54.453125 57.140625 56.144531 C 58.085938 59.523438 59.859375 63.117188 62 66.832031 C 64.179688 70.554688 66.75 74.390625 69.417969 78.40625 C 72.066406 82.425781 74.816406 86.636719 77.273438 91.195312 C 79.707031 95.769531 81.921875 100.726562 83.003906 106.265625 C 83.542969 109.015625 83.785156 111.886719 83.597656 114.722656 C 83.441406 117.5625 82.761719 120.34375 81.804688 122.832031 C 81.351562 124.09375 80.742188 125.246094 80.15625 126.371094 C 79.84375 126.917969 79.503906 127.4375 79.179688 127.960938 L 78.6875 128.730469 L 78.152344 129.445312 C 77.792969 129.910156 77.4375 130.375 77.085938 130.832031 C 76.71875 131.269531 76.332031 131.679688 75.960938 132.089844 C 75.226562 132.929688 74.445312 133.652344 73.679688 134.351562 C 70.601562 137.128906 67.496094 139.019531 64.734375 140.53125 C 63.316406 141.226562 62.042969 141.933594 60.777344 142.421875 C 59.539062 142.945312 58.417969 143.4375 57.359375 143.785156 C 55.285156 144.550781 53.617188 145.027344 52.46875 145.324219 C 51.324219 145.628906 50.710938 145.769531 50.710938 145.769531 C 50.710938 145.769531 51.15625 145.320312 51.988281 144.480469 C 52.40625 144.066406 52.921875 143.5625 53.53125 142.988281 C 54.128906 142.398438 54.808594 141.714844 55.570312 140.957031 C 57.089844 139.445312 58.878906 137.59375 60.789062 135.453125 C 62.667969 133.292969 64.667969 130.816406 66.351562 128.0625 C 66.757812 127.367188 67.203125 126.6875 67.535156 125.953125 C 67.714844 125.597656 67.898438 125.238281 68.082031 124.875 C 68.230469 124.511719 68.382812 124.140625 68.539062 123.769531 L 68.769531 123.21875 L 68.949219 122.65625 C 69.070312 122.28125 69.203125 121.914062 69.3125 121.539062 C 69.472656 120.777344 69.703125 120.039062 69.777344 119.277344 C 70.246094 116.265625 69.828125 113.238281 68.671875 109.898438 C 67.542969 106.570312 65.546875 102.992188 63.253906 99.269531 C 60.921875 95.539062 58.242188 91.671875 55.53125 87.582031 C 52.835938 83.492188 50.113281 79.15625 47.753906 74.449219 C 45.433594 69.722656 43.425781 64.5625 42.667969 58.964844 C 42.292969 56.1875 42.195312 53.339844 42.519531 50.570312 C 42.84375 47.796875 43.546875 45.148438 44.492188 42.726562 C 46.488281 37.90625 49.382812 34.15625 52.300781 31.300781 C 55.238281 28.433594 58.234375 26.398438 60.914062 24.75 C 62.285156 23.96875 63.527344 23.210938 64.757812 22.652344 C 65.960938 22.058594 67.054688 21.511719 68.105469 21.101562 C 70.152344 20.207031 71.769531 19.664062 72.894531 19.308594 C 74.015625 18.941406 74.625 18.765625 74.625 18.765625 " fill-opacity="1" fill-rule="nonzero"/></g><path fill="#000000" d="M 95.648438 41.167969 C 95.664062 44.703125 92.808594 47.582031 89.273438 47.597656 C 85.738281 47.613281 82.859375 44.757812 82.84375 41.222656 C 82.828125 37.6875 85.683594 34.808594 89.21875 34.792969 C 92.753906 34.777344 95.632812 37.632812 95.648438 41.167969 " fill-opacity="1" fill-rule="nonzero"/><path fill="#31e78c" d="M 93.5625 26.882812 C 93.570312 29.300781 91.621094 31.265625 89.203125 31.277344 C 86.785156 31.289062 84.820312 29.335938 84.808594 26.917969 C 84.796875 24.503906 86.75 22.535156 89.164062 22.523438 C 91.582031 22.515625 93.550781 24.464844 93.5625 26.882812 " fill-opacity="1" fill-rule="nonzero"/><path fill="#000000" d="M 94.273438 56.804688 C 94.285156 59.546875 92.074219 61.777344 89.335938 61.789062 C 86.59375 61.800781 84.363281 59.589844 84.351562 56.847656 C 84.339844 54.109375 86.550781 51.878906 89.292969 51.867188 C 92.03125 51.855469 94.261719 54.066406 94.273438 56.804688 " fill-opacity="1" fill-rule="nonzero"/><path fill="#000000" d="M 44.316406 119.691406 C 44.328125 123.226562 41.476562 126.105469 37.941406 126.117188 C 34.40625 126.136719 31.527344 123.28125 31.511719 119.746094 C 31.496094 116.210938 34.351562 113.332031 37.886719 113.316406 C 41.421875 113.300781 44.296875 116.15625 44.316406 119.691406 " fill-opacity="1" fill-rule="nonzero"/><path fill="#31e78c" d="M 42.226562 105.402344 C 42.238281 107.820312 40.285156 109.789062 37.871094 109.796875 C 35.453125 109.808594 33.488281 107.859375 33.476562 105.441406 C 33.464844 103.023438 35.417969 101.058594 37.832031 101.046875 C 40.25 101.035156 42.21875 102.988281 42.226562 105.402344 " fill-opacity="1" fill-rule="nonzero"/><path fill="#000000" d="M 42.941406 135.328125 C 42.953125 138.066406 40.742188 140.300781 38 140.308594 C 35.261719 140.320312 33.03125 138.109375 33.019531 135.371094 C 33.007812 132.628906 35.21875 130.398438 37.957031 130.386719 C 40.699219 130.375 42.929688 132.589844 42.941406 135.328125 " fill-opacity="1" fill-rule="nonzero"/><g fill="#000000" fill-opacity="1"><g transform="translate(135.475535, 127.649743)"><g><path d="M 73.53125 -75.59375 C 75.332031 -75.59375 76.894531 -74.960938 78.21875 -73.703125 C 79.550781 -72.441406 80.21875 -70.878906 80.21875 -69.015625 L 80.21875 -6.578125 C 80.21875 -4.710938 79.609375 -3.148438 78.390625 -1.890625 C 77.171875 -0.628906 75.550781 0 73.53125 0 C 71.519531 0 69.882812 -0.609375 68.625 -1.828125 C 67.375 -3.054688 66.75 -4.640625 66.75 -6.578125 L 66.75 -50.03125 L 48.953125 -22.859375 C 48.234375 -21.992188 47.40625 -21.289062 46.46875 -20.75 C 45.539062 -20.21875 44.570312 -19.988281 43.5625 -20.0625 C 42.625 -19.988281 41.6875 -20.21875 40.75 -20.75 C 39.820312 -21.289062 39 -21.992188 38.28125 -22.859375 L 20.484375 -51 L 20.484375 -6.578125 C 20.484375 -4.640625 19.90625 -3.054688 18.75 -1.828125 C 17.601562 -0.609375 16.097656 0 14.234375 0 C 12.429688 0 10.957031 -0.628906 9.8125 -1.890625 C 8.664062 -3.148438 8.09375 -4.710938 8.09375 -6.578125 L 8.09375 -69.015625 C 8.09375 -70.804688 8.753906 -72.347656 10.078125 -73.640625 C 11.410156 -74.941406 13.007812 -75.59375 14.875 -75.59375 C 15.957031 -75.59375 17.035156 -75.320312 18.109375 -74.78125 C 19.191406 -74.238281 20.019531 -73.535156 20.59375 -72.671875 L 44.109375 -36.546875 L 68.25 -72.671875 C 68.832031 -73.535156 69.609375 -74.238281 70.578125 -74.78125 C 71.546875 -75.320312 72.53125 -75.59375 73.53125 -75.59375 Z M 73.53125 -75.59375 "/></g></g></g><g fill="#000000" fill-opacity="1"><g transform="translate(223.784685, 127.649743)"><g><path d="M 50.78125 -12.40625 C 52.65625 -12.40625 54.21875 -11.773438 55.46875 -10.515625 C 56.726562 -9.253906 57.359375 -7.796875 57.359375 -6.140625 C 57.359375 -4.347656 56.726562 -2.875 55.46875 -1.71875 C 54.21875 -0.570312 52.65625 0 50.78125 0 L 14.671875 0 C 12.796875 0 11.226562 -0.628906 9.96875 -1.890625 C 8.71875 -3.148438 8.09375 -4.710938 8.09375 -6.578125 L 8.09375 -68.90625 C 8.09375 -70.769531 8.71875 -72.332031 9.96875 -73.59375 C 11.226562 -74.851562 12.796875 -75.484375 14.671875 -75.484375 L 50.78125 -75.484375 C 52.65625 -75.484375 54.21875 -74.890625 55.46875 -73.703125 C 56.726562 -72.515625 57.359375 -70.988281 57.359375 -69.125 C 57.359375 -67.320312 56.75 -65.863281 55.53125 -64.75 C 54.3125 -63.632812 52.726562 -63.078125 50.78125 -63.078125 L 21.5625 -63.078125 L 21.5625 -44.75 L 45.9375 -44.75 C 47.800781 -44.75 49.363281 -44.15625 50.625 -42.96875 C 51.882812 -41.78125 52.515625 -40.253906 52.515625 -38.390625 C 52.515625 -36.585938 51.898438 -35.128906 50.671875 -34.015625 C 49.453125 -32.898438 47.875 -32.34375 45.9375 -32.34375 L 21.5625 -32.34375 L 21.5625 -12.40625 Z M 50.78125 -12.40625 "/></g></g></g><g fill="#000000" fill-opacity="1"><g transform="translate(285.460899, 127.649743)"><g><path d="M 40.4375 -75.484375 C 47.195312 -75.484375 53 -73.8125 57.84375 -70.46875 C 62.695312 -67.125 66.398438 -62.59375 68.953125 -56.875 C 71.503906 -51.164062 72.78125 -44.785156 72.78125 -37.734375 C 72.78125 -30.691406 71.503906 -24.3125 68.953125 -18.59375 C 66.398438 -12.882812 62.695312 -8.359375 57.84375 -5.015625 C 53 -1.671875 47.195312 0 40.4375 0 L 14.671875 0 C 12.796875 0 11.226562 -0.628906 9.96875 -1.890625 C 8.71875 -3.148438 8.09375 -4.710938 8.09375 -6.578125 L 8.09375 -68.90625 C 8.09375 -70.769531 8.71875 -72.332031 9.96875 -73.59375 C 11.226562 -74.851562 12.796875 -75.484375 14.671875 -75.484375 Z M 39.359375 -12.40625 C 45.828125 -12.40625 50.675781 -14.789062 53.90625 -19.5625 C 57.144531 -24.34375 58.765625 -30.398438 58.765625 -37.734375 C 58.765625 -45.066406 57.128906 -51.125 53.859375 -55.90625 C 50.585938 -60.6875 45.753906 -63.078125 39.359375 -63.078125 L 21.5625 -63.078125 L 21.5625 -12.40625 Z M 39.359375 -12.40625 "/></g></g></g><g fill="#000000" fill-opacity="1"><g transform="translate(362.55618, 127.649743)"><g><path d="M 21.5625 -6.578125 C 21.5625 -4.710938 20.878906 -3.148438 19.515625 -1.890625 C 18.148438 -0.628906 16.566406 0 14.765625 0 C 12.828125 0 11.226562 -0.628906 9.96875 -1.890625 C 8.71875 -3.148438 8.09375 -4.710938 8.09375 -6.578125 L 8.09375 -68.90625 C 8.09375 -70.769531 8.738281 -72.332031 10.03125 -73.59375 C 11.320312 -74.851562 12.972656 -75.484375 14.984375 -75.484375 C 16.785156 -75.484375 18.332031 -74.851562 19.625 -73.59375 C 20.914062 -72.332031 21.5625 -70.769531 21.5625 -68.90625 Z M 21.5625 -6.578125 "/></g></g></g><g fill="#000000" fill-opacity="1"><g transform="translate(392.208207, 127.649743)"><g><path d="M 57.6875 -75.484375 C 59.625 -75.484375 61.203125 -74.90625 62.421875 -73.75 C 63.648438 -72.601562 64.265625 -71.09375 64.265625 -69.21875 C 64.265625 -67.351562 63.648438 -65.863281 62.421875 -64.75 C 61.203125 -63.632812 59.625 -63.078125 57.6875 -63.078125 L 40.765625 -63.078125 L 40.765625 -6.578125 C 40.765625 -4.710938 40.078125 -3.148438 38.703125 -1.890625 C 37.335938 -0.628906 35.648438 0 33.640625 0 C 31.628906 0 29.972656 -0.628906 28.671875 -1.890625 C 27.378906 -3.148438 26.734375 -4.710938 26.734375 -6.578125 L 26.734375 -63.078125 L 9.8125 -63.078125 C 7.875 -63.078125 6.289062 -63.648438 5.0625 -64.796875 C 3.84375 -65.953125 3.234375 -67.460938 3.234375 -69.328125 C 3.234375 -71.128906 3.863281 -72.601562 5.125 -73.75 C 6.382812 -74.90625 7.945312 -75.484375 9.8125 -75.484375 Z M 57.6875 -75.484375 "/></g></g></g><g fill="#000000" fill-opacity="1"><g transform="translate(459.707013, 127.649743)"><g><path d="M 67.28125 -10.5625 C 68.21875 -9.988281 68.953125 -9.234375 69.484375 -8.296875 C 70.023438 -7.367188 70.296875 -6.398438 70.296875 -5.390625 C 70.296875 -4.097656 69.867188 -2.910156 69.015625 -1.828125 C 67.929688 -0.535156 66.273438 0.109375 64.046875 0.109375 C 62.328125 0.109375 60.75 -0.285156 59.3125 -1.078125 C 54.132812 -4.023438 51.546875 -10.023438 51.546875 -19.078125 C 51.546875 -21.671875 50.695312 -23.722656 49 -25.234375 C 47.3125 -26.742188 44.890625 -27.5 41.734375 -27.5 L 21.5625 -27.5 L 21.5625 -6.578125 C 21.5625 -4.640625 21.039062 -3.054688 20 -1.828125 C 18.957031 -0.609375 17.570312 0 15.84375 0 C 13.757812 0 11.945312 -0.628906 10.40625 -1.890625 C 8.863281 -3.148438 8.09375 -4.710938 8.09375 -6.578125 L 8.09375 -68.90625 C 8.09375 -70.769531 8.71875 -72.332031 9.96875 -73.59375 C 11.226562 -74.851562 12.796875 -75.484375 14.671875 -75.484375 L 45.71875 -75.484375 C 49.457031 -75.484375 52.976562 -74.472656 56.28125 -72.453125 C 59.59375 -70.441406 62.234375 -67.675781 64.203125 -64.15625 C 66.179688 -60.632812 67.171875 -56.679688 67.171875 -52.296875 C 67.171875 -48.703125 66.203125 -45.195312 64.265625 -41.78125 C 62.328125 -38.363281 59.8125 -35.648438 56.71875 -33.640625 C 61.25 -30.472656 63.726562 -26.234375 64.15625 -20.921875 C 64.375 -19.765625 64.484375 -18.648438 64.484375 -17.578125 C 64.765625 -15.347656 65.050781 -13.75 65.34375 -12.78125 C 65.632812 -11.8125 66.28125 -11.070312 67.28125 -10.5625 Z M 45.1875 -38.609375 C 46.476562 -38.609375 47.734375 -39.21875 48.953125 -40.4375 C 50.171875 -41.65625 51.175781 -43.289062 51.96875 -45.34375 C 52.757812 -47.394531 53.15625 -49.601562 53.15625 -51.96875 C 53.15625 -53.988281 52.757812 -55.84375 51.96875 -57.53125 C 51.175781 -59.21875 50.171875 -60.5625 48.953125 -61.5625 C 47.734375 -62.570312 46.476562 -63.078125 45.1875 -63.078125 L 21.5625 -63.078125 L 21.5625 -38.609375 Z M 45.1875 -38.609375 "/></g></g></g><g fill="#000000" fill-opacity="1"><g transform="translate(533.783176, 127.649743)"><g><path d="M 67.28125 -8.40625 C 67.644531 -7.476562 67.828125 -6.617188 67.828125 -5.828125 C 67.828125 -3.953125 67.210938 -2.421875 65.984375 -1.234375 C 64.765625 -0.046875 63.363281 0.546875 61.78125 0.546875 C 60.488281 0.546875 59.320312 0.148438 58.28125 -0.640625 C 57.238281 -1.429688 56.429688 -2.507812 55.859375 -3.875 L 50.25 -16.921875 L 18.109375 -16.921875 L 12.515625 -3.78125 C 12.003906 -2.40625 11.226562 -1.335938 10.1875 -0.578125 C 9.144531 0.171875 8.015625 0.546875 6.796875 0.546875 C 4.921875 0.546875 3.5 0.0390625 2.53125 -0.96875 C 1.5625 -1.976562 1.078125 -3.34375 1.078125 -5.0625 C 1.078125 -5.707031 1.1875 -6.390625 1.40625 -7.109375 L 28.25 -71.59375 C 28.820312 -73.03125 29.679688 -74.144531 30.828125 -74.9375 C 31.984375 -75.726562 33.28125 -76.050781 34.71875 -75.90625 C 36.007812 -75.90625 37.210938 -75.523438 38.328125 -74.765625 C 39.441406 -74.015625 40.253906 -72.957031 40.765625 -71.59375 Z M 23.40625 -29.328125 L 44.96875 -29.328125 L 34.078125 -54.5625 Z M 23.40625 -29.328125 "/></g></g></g><g fill="#000000" fill-opacity="1"><g transform="translate(602.683732, 127.649743)"><g><path d="M 40.4375 -75.484375 C 47.195312 -75.484375 53 -73.8125 57.84375 -70.46875 C 62.695312 -67.125 66.398438 -62.59375 68.953125 -56.875 C 71.503906 -51.164062 72.78125 -44.785156 72.78125 -37.734375 C 72.78125 -30.691406 71.503906 -24.3125 68.953125 -18.59375 C 66.398438 -12.882812 62.695312 -8.359375 57.84375 -5.015625 C 53 -1.671875 47.195312 0 40.4375 0 L 14.671875 0 C 12.796875 0 11.226562 -0.628906 9.96875 -1.890625 C 8.71875 -3.148438 8.09375 -4.710938 8.09375 -6.578125 L 8.09375 -68.90625 C 8.09375 -70.769531 8.71875 -72.332031 9.96875 -73.59375 C 11.226562 -74.851562 12.796875 -75.484375 14.671875 -75.484375 Z M 39.359375 -12.40625 C 45.828125 -12.40625 50.675781 -14.789062 53.90625 -19.5625 C 57.144531 -24.34375 58.765625 -30.398438 58.765625 -37.734375 C 58.765625 -45.066406 57.128906 -51.125 53.859375 -55.90625 C 50.585938 -60.6875 45.753906 -63.078125 39.359375 -63.078125 L 21.5625 -63.078125 L 21.5625 -12.40625 Z M 39.359375 -12.40625 "/></g></g></g><g fill="#000000" fill-opacity="1"><g transform="translate(679.779013, 127.649743)"><g><path d="M 50.78125 -12.40625 C 52.65625 -12.40625 54.21875 -11.773438 55.46875 -10.515625 C 56.726562 -9.253906 57.359375 -7.796875 57.359375 -6.140625 C 57.359375 -4.347656 56.726562 -2.875 55.46875 -1.71875 C 54.21875 -0.570312 52.65625 0 50.78125 0 L 14.671875 0 C 12.796875 0 11.226562 -0.628906 9.96875 -1.890625 C 8.71875 -3.148438 8.09375 -4.710938 8.09375 -6.578125 L 8.09375 -68.90625 C 8.09375 -70.769531 8.71875 -72.332031 9.96875 -73.59375 C 11.226562 -74.851562 12.796875 -75.484375 14.671875 -75.484375 L 50.78125 -75.484375 C 52.65625 -75.484375 54.21875 -74.890625 55.46875 -73.703125 C 56.726562 -72.515625 57.359375 -70.988281 57.359375 -69.125 C 57.359375 -67.320312 56.75 -65.863281 55.53125 -64.75 C 54.3125 -63.632812 52.726562 -63.078125 50.78125 -63.078125 L 21.5625 -63.078125 L 21.5625 -44.75 L 45.9375 -44.75 C 47.800781 -44.75 49.363281 -44.15625 50.625 -42.96875 C 51.882812 -41.78125 52.515625 -40.253906 52.515625 -38.390625 C 52.515625 -36.585938 51.898438 -35.128906 50.671875 -34.015625 C 49.453125 -32.898438 47.875 -32.34375 45.9375 -32.34375 L 21.5625 -32.34375 L 21.5625 -12.40625 Z M 50.78125 -12.40625 "/></g></g></g></svg>